<svg id="svg" version="1.1" xmlns="http://www.w3.org/2000/svg" xmlns:xlink="http://www.w3.org/1999/xlink" width="400" height="399.25373134328356" viewBox="0, 0, 400,399.25373134328356"><g id="svgg"><path id="path0" d="M268.657 78.010 C 245.306 80.867,229.682 93.534,221.887 115.929 C 217.816 127.624,215.575 152.356,213.963 203.358 C 213.044 232.446,216.730 267.114,222.612 284.701 C 231.459 311.156,253.094 323.200,284.888 319.371 C 312.305 316.069,327.265 300.310,333.742 267.910 C 336.072 256.253,336.487 249.496,336.745 218.934 L 336.952 194.399 306.629 194.494 L 276.306 194.590 276.208 208.302 L 276.110 222.015 290.724 222.015 L 305.338 222.015 305.108 235.354 C 304.331 280.290,297.410 294.520,276.306 294.569 C 259.949 294.607,253.023 285.519,250.586 260.821 C 244.672 200.877,246.184 141.162,254.136 120.697 C 262.218 99.896,287.725 96.649,298.126 115.097 C 300.862 119.950,304.104 131.213,304.104 135.864 C 304.104 137.499,303.967 137.534,319.422 131.906 L 334.142 126.546 334.041 124.560 C 332.562 95.431,302.309 73.892,268.657 78.010 M76.493 199.813 L 76.493 317.910 92.351 317.910 L 108.209 317.910 108.209 262.313 L 108.209 206.716 109.670 206.716 L 111.132 206.716 129.664 262.313 L 148.197 317.910 164.792 317.910 C 173.919 317.910,181.307 317.780,181.208 317.621 C 181.025 317.324,141.083 205.871,140.788 204.832 C 140.666 204.401,142.139 203.499,146.524 201.317 C 165.454 191.901,172.686 178.439,174.276 149.657 C 176.130 116.094,166.156 94.260,145.136 85.864 C 135.726 82.105,131.627 81.716,101.415 81.716 L 76.493 81.716 76.493 199.813 M119.216 106.954 C 135.966 109.538,142.662 119.660,143.187 143.192 C 143.763 168.956,137.910 179.793,121.196 183.914 C 117.770 184.759,112.738 185.448,109.991 185.448 L 108.209 185.448 108.209 145.923 C 108.209 108.586,108.245 106.390,108.862 106.249 C 109.989 105.991,115.331 106.355,119.216 106.954 " stroke="none" fill="#fbfbfb" fill-rule="evenodd"></path><path id="path1" d="M0.000 199.627 L 0.000 399.254 200.000 399.254 L 400.000 399.254 400.000 199.627 L 400.000 0.000 200.000 0.000 L 0.000 0.000 0.000 199.627 M283.955 77.620 C 311.581 80.034,332.173 99.514,334.404 125.347 L 334.515 126.627 319.403 132.122 L 304.291 137.617 303.508 132.894 C 300.184 112.849,292.048 103.499,277.985 103.565 C 259.453 103.652,251.365 117.014,248.302 152.612 C 245.713 182.692,248.805 260.819,253.183 275.940 C 257.361 290.367,269.159 297.298,283.360 293.666 C 299.224 289.609,304.066 275.972,305.057 232.556 L 305.298 222.015 290.709 222.015 L 276.119 222.015 276.119 208.209 L 276.119 194.403 306.530 194.403 L 336.940 194.403 336.937 218.190 C 336.931 251.567,335.964 262.561,331.739 277.244 C 323.051 307.432,306.069 319.970,273.881 319.960 C 224.401 319.943,209.399 282.979,214.897 174.627 C 217.324 126.811,219.428 115.694,228.740 101.493 C 238.702 86.301,251.007 79.532,272.388 77.483 C 275.249 77.209,279.879 77.264,283.955 77.620 M132.352 82.229 C 161.982 87.157,175.320 107.245,174.502 145.709 C 173.893 174.333,166.387 191.370,150.875 199.334 C 147.533 201.050,142.443 203.572,141.556 203.951 C 140.789 204.280,141.431 206.160,160.864 260.448 C 171.920 291.334,181.063 316.898,181.180 317.257 C 181.381 317.873,180.430 317.910,164.669 317.910 L 147.945 317.910 129.478 262.500 L 111.010 207.090 109.610 207.090 L 108.209 207.090 108.209 262.500 L 108.209 317.910 92.164 317.910 L 76.119 317.910 76.119 199.598 L 76.119 81.286 102.332 81.441 C 124.733 81.573,129.098 81.688,132.352 82.229 M108.209 145.651 L 108.209 185.075 110.680 185.075 C 133.349 185.075,143.118 173.205,143.079 145.709 C 143.041 118.239,134.900 107.633,112.966 106.479 L 108.209 106.228 108.209 145.651 " stroke="none" fill="#242424" fill-rule="evenodd"></path><path id="path2" d="M76.292 81.810 C 76.195 82.066,76.158 135.336,76.211 200.187 L 76.307 318.097 76.400 199.910 L 76.493 81.722 98.787 81.623 L 121.082 81.524 98.776 81.434 C 81.207 81.362,76.432 81.442,76.292 81.810 M174.355 138.060 C 174.355 138.983,174.428 139.361,174.517 138.899 C 174.606 138.438,174.606 137.682,174.517 137.220 C 174.428 136.758,174.355 137.136,174.355 138.060 M174.360 147.948 C 174.363 148.974,174.436 149.349,174.521 148.782 C 174.607 148.215,174.605 147.375,174.516 146.917 C 174.428 146.458,174.358 146.922,174.360 147.948 M215.758 159.701 C 215.758 160.420,215.835 160.714,215.929 160.354 C 216.023 159.995,216.023 159.408,215.929 159.049 C 215.835 158.689,215.758 158.983,215.758 159.701 M247.482 162.127 C 247.486 162.948,247.563 163.240,247.652 162.776 C 247.741 162.311,247.738 161.640,247.644 161.283 C 247.551 160.926,247.478 161.306,247.482 162.127 M215.012 174.254 C 215.012 174.972,215.089 175.266,215.183 174.907 C 215.276 174.548,215.276 173.960,215.183 173.601 C 215.089 173.242,215.012 173.535,215.012 174.254 M247.180 184.515 C 247.180 190.672,247.231 193.243,247.294 190.228 C 247.356 187.214,247.357 182.177,247.294 179.034 C 247.232 175.892,247.180 178.358,247.180 184.515 M214.639 182.463 C 214.639 183.181,214.716 183.475,214.809 183.116 C 214.903 182.757,214.903 182.169,214.809 181.810 C 214.716 181.451,214.639 181.744,214.639 182.463 M214.281 190.672 C 214.281 191.595,214.354 191.973,214.442 191.511 C 214.531 191.049,214.531 190.294,214.442 189.832 C 214.354 189.370,214.281 189.748,214.281 190.672 M213.913 200.560 C 213.915 201.586,213.988 201.961,214.074 201.394 C 214.159 200.827,214.157 199.987,214.069 199.528 C 213.980 199.070,213.910 199.534,213.913 200.560 M336.737 225.933 C 336.737 233.937,336.786 237.158,336.847 233.091 C 336.907 229.024,336.907 222.476,336.846 218.539 C 336.786 214.602,336.737 217.929,336.737 225.933 M247.495 213.993 C 247.498 215.019,247.570 215.394,247.656 214.827 C 247.742 214.260,247.739 213.420,247.651 212.961 C 247.562 212.502,247.492 212.966,247.495 213.993 M213.918 219.403 C 213.918 220.532,213.988 220.993,214.073 220.429 C 214.159 219.865,214.159 218.941,214.073 218.377 C 213.988 217.813,213.918 218.274,213.918 219.403 M247.848 223.507 C 247.848 224.226,247.925 224.520,248.018 224.160 C 248.112 223.801,248.112 223.214,248.018 222.854 C 247.925 222.495,247.848 222.789,247.848 223.507 M214.266 230.224 C 214.266 230.942,214.342 231.236,214.436 230.877 C 214.530 230.518,214.530 229.930,214.436 229.571 C 214.342 229.212,214.266 229.506,214.266 230.224 M304.966 240.112 C 304.968 241.343,305.038 241.802,305.121 241.131 C 305.204 240.461,305.203 239.453,305.117 238.893 C 305.032 238.332,304.964 238.881,304.966 240.112 M293.079 288.526 L 291.604 290.112 293.190 288.637 C 294.665 287.265,294.948 286.940,294.665 286.940 C 294.604 286.940,293.891 287.654,293.079 288.526 M316.217 305.690 L 314.366 307.649 316.325 305.798 C 318.145 304.077,318.455 303.731,318.176 303.731 C 318.117 303.731,317.236 304.613,316.217 305.690 M234.701 305.784 C 235.398 306.502,236.051 307.090,236.154 307.090 C 236.256 307.090,235.771 306.502,235.075 305.784 C 234.378 305.065,233.725 304.478,233.622 304.478 C 233.520 304.478,234.005 305.065,234.701 305.784 " stroke="none" fill="#949494" fill-rule="evenodd"></path><path id="path3" d="M277.150 77.503 C 277.614 77.592,278.286 77.589,278.642 77.495 C 278.999 77.402,278.619 77.329,277.799 77.333 C 276.978 77.337,276.686 77.413,277.150 77.503 " stroke="none" fill="#8c8c8c" fill-rule="evenodd"></path><path id="path4" d="M274.160 77.502 C 274.622 77.591,275.378 77.591,275.840 77.502 C 276.301 77.413,275.924 77.340,275.000 77.340 C 274.076 77.340,273.699 77.413,274.160 77.502 M279.571 77.496 C 279.930 77.590,280.518 77.590,280.877 77.496 C 281.236 77.402,280.942 77.325,280.224 77.325 C 279.506 77.325,279.212 77.402,279.571 77.496 M122.299 81.607 C 122.763 81.696,123.435 81.693,123.792 81.600 C 124.148 81.506,123.769 81.433,122.948 81.437 C 122.127 81.442,121.835 81.518,122.299 81.607 M235.990 92.257 L 234.515 93.843 236.101 92.368 C 237.576 90.997,237.858 90.672,237.576 90.672 C 237.515 90.672,236.801 91.385,235.990 92.257 M159.142 94.776 C 160.152 95.802,161.063 96.642,161.166 96.642 C 161.269 96.642,160.526 95.802,159.515 94.776 C 158.504 93.750,157.593 92.910,157.491 92.910 C 157.388 92.910,158.131 93.750,159.142 94.776 M247.482 165.858 C 247.486 166.679,247.563 166.971,247.652 166.507 C 247.741 166.043,247.738 165.371,247.644 165.014 C 247.551 164.658,247.478 165.037,247.482 165.858 M108.675 185.332 C 109.035 185.426,109.622 185.426,109.981 185.332 C 110.340 185.238,110.047 185.161,109.328 185.161 C 108.610 185.161,108.316 185.238,108.675 185.332 M160.984 191.138 L 159.888 192.351 161.101 191.255 C 161.768 190.652,162.313 190.106,162.313 190.042 C 162.313 189.754,162.006 190.008,160.984 191.138 M213.893 197.015 C 213.893 197.733,213.969 198.027,214.063 197.668 C 214.157 197.309,214.157 196.721,214.063 196.362 C 213.969 196.003,213.893 196.297,213.893 197.015 M108.866 206.980 C 109.330 207.070,110.002 207.066,110.359 206.973 C 110.716 206.879,110.336 206.806,109.515 206.811 C 108.694 206.815,108.402 206.891,108.866 206.980 M247.495 209.142 C 247.498 210.168,247.570 210.543,247.656 209.976 C 247.742 209.409,247.739 208.569,247.651 208.111 C 247.562 207.652,247.492 208.116,247.495 209.142 M213.893 223.881 C 213.893 224.599,213.969 224.893,214.063 224.534 C 214.157 224.174,214.157 223.587,214.063 223.228 C 213.969 222.868,213.893 223.162,213.893 223.881 M304.973 234.142 C 304.975 235.578,305.042 236.120,305.123 235.346 C 305.204 234.572,305.202 233.397,305.120 232.734 C 305.038 232.072,304.972 232.705,304.973 234.142 M336.661 242.724 C 336.665 243.545,336.742 243.837,336.831 243.373 C 336.920 242.908,336.917 242.237,336.824 241.880 C 336.730 241.523,336.657 241.903,336.661 242.724 M259.328 287.803 C 259.328 287.868,259.874 288.413,260.541 289.016 L 261.754 290.112 260.658 288.899 C 259.636 287.769,259.328 287.515,259.328 287.803 M275.466 294.660 C 275.826 294.754,276.413 294.754,276.772 294.660 C 277.132 294.566,276.838 294.490,276.119 294.490 C 275.401 294.490,275.107 294.566,275.466 294.660 " stroke="none" fill="#686868" fill-rule="evenodd"></path></g></svg>